<?xml version="1.0" standalone="no"?><!DOCTYPE svg PUBLIC "-//W3C//DTD SVG 1.1//EN" "http://www.w3.org/Graphics/SVG/1.1/DTD/svg11.dtd"><svg t="1701157392094" class="icon" viewBox="0 0 1024 1024" version="1.1" xmlns="http://www.w3.org/2000/svg" p-id="12773" xmlns:xlink="http://www.w3.org/1999/xlink" width="200" height="200"><path d="M128 213.312h42.688V256H128z" fill="#F39800" p-id="12774"></path><path d="M469.312 42.688H512v42.688h-42.688zM512 42.688h42.688v42.688H512zM554.688 42.688h42.688v42.688h-42.688z" fill="#FABF00" p-id="12775"></path><path d="M85.312 170.688H128v42.688h-42.688z" fill="#F39800" p-id="12776"></path><path d="M298.688 170.688h42.688v42.688h-42.688z" fill="#A65425" p-id="12777"></path><path d="M341.312 170.688H384v42.688h-42.688zM384 170.688h42.688v42.688H384zM426.688 170.688h42.688v42.688h-42.688z" fill="#A65425" p-id="12778"></path><path d="M469.312 170.688H512v42.688h-42.688zM256 213.312h42.688V256H256zM298.688 213.312h42.688V256h-42.688z" fill="#A65425" p-id="12779"></path><path d="M341.312 213.312H384V256h-42.688zM384 213.312h42.688V256H384zM426.688 213.312h42.688V256h-42.688z" fill="#A65425" p-id="12780"></path><path d="M469.312 213.312H512V256h-42.688zM170.688 256h42.688v42.688h-42.688z" fill="#A65425" p-id="12781"></path><path d="M213.312 256H256v42.688h-42.688zM256 256h42.688v42.688H256zM298.688 256h42.688v42.688h-42.688z" fill="#A65425" p-id="12782"></path><path d="M341.312 256H384v42.688h-42.688zM384 256h42.688v42.688H384zM426.688 256h42.688v42.688h-42.688z" fill="#A65425" p-id="12783"></path><path d="M469.312 256H512v42.688h-42.688zM256 298.688h42.688v42.688H256zM298.688 298.688h42.688v42.688h-42.688z" fill="#A65425" p-id="12784"></path><path d="M341.312 298.688H384v42.688h-42.688zM384 298.688h42.688v42.688H384zM426.688 298.688h42.688v42.688h-42.688z" fill="#A65425" p-id="12785"></path><path d="M469.312 298.688H512v42.688h-42.688zM512 170.688h42.688v42.688H512z" fill="#A65425" p-id="12786"></path><path d="M512 213.312h42.688V256H512zM512 256h42.688v42.688H512zM512 298.688h42.688v42.688H512zM554.688 170.688h42.688v42.688h-42.688z" fill="#A65425" p-id="12787"></path><path d="M554.688 213.312h42.688V256h-42.688zM554.688 256h42.688v42.688h-42.688zM554.688 298.688h42.688v42.688h-42.688zM597.312 170.688H640v42.624h-42.688z" fill="#A65425" p-id="12788"></path><path d="M597.312 213.312H640V256h-42.688zM597.312 256H640v42.688h-42.688zM597.312 298.688H640v42.688h-42.688zM640 213.312h42.688V256H640zM640 256h42.688v42.688H640zM682.688 213.312h42.624V256h-42.624zM640 170.688h42.688v42.624H640z" fill="#A65425" p-id="12789"></path><path d="M682.688 170.688h42.688v42.624h-42.688z" fill="#82512D" p-id="12790"></path><path d="M725.312 170.688H768v42.624h-42.688z" fill="#82512D" p-id="12791"></path><path d="M682.688 298.688h42.688v42.688h-42.688zM725.312 256H768v42.688h-42.688z" fill="#A65425" p-id="12792"></path><path d="M725.312 298.688H768v42.688h-42.688z" fill="#A65425" p-id="12793"></path><path d="M768 213.312h42.688V256H768z" fill="#82512D" p-id="12794"></path><path d="M768 256h42.688v42.688H768z" fill="#A65425" p-id="12795"></path><path d="M768 298.688h42.688v42.688H768zM810.688 256h42.688v42.688h-42.688z" fill="#82512D" p-id="12796"></path><path d="M853.312 256H896v42.688h-42.688z" fill="#82512D" p-id="12797"></path><path d="M384 128h42.688v42.688H384zM426.688 128h42.688v42.688h-42.688z" fill="#A65425" p-id="12798"></path><path d="M469.312 128H512v42.688h-42.688zM512 128h42.688v42.688H512zM554.688 128h42.688v42.688h-42.688z" fill="#A65425" p-id="12799"></path><path d="M597.312 128H640v42.688h-42.688z" fill="#A65425" p-id="12800"></path><path d="M640 128h42.688v42.688H640z" fill="#82512D" p-id="12801"></path><path d="M640 298.688h42.688v42.688H640zM682.688 256h42.688v42.688h-42.688zM725.312 213.312H768V256h-42.688z" fill="#A65425" p-id="12802"></path><path d="M682.688 384h42.688v42.688h-42.688z" fill="#F39800" p-id="12803"></path><path d="M682.688 426.688h42.688v42.688h-42.688z" fill="#FABF00" p-id="12804"></path><path d="M682.688 469.312h42.688V512h-42.688z" fill="#FFFFFF" p-id="12805"></path><path d="M725.312 384H768v42.688h-42.688z" fill="#F39800" p-id="12806"></path><path d="M725.312 426.688H768v42.688h-42.688z" fill="#FABF00" p-id="12807"></path><path d="M725.312 469.312H768V512h-42.688z" fill="#FFFFFF" p-id="12808"></path><path d="M682.688 512h42.688v42.688h-42.688z" fill="#FABF00" p-id="12809"></path><path d="M725.312 512H768v42.688h-42.688z" fill="#FFFFFF" p-id="12810"></path><path d="M768 384h42.688v42.688H768z" fill="#F39800" p-id="12811"></path><path d="M768 426.688h42.688v42.688H768z" fill="#FABF00" p-id="12812"></path><path d="M768 469.312h42.688V512H768zM768 512h42.688v42.688H768zM682.688 554.688h42.688v42.688h-42.688z" fill="#FABF00" p-id="12813"></path><path d="M725.312 554.688H768v42.688h-42.688z" fill="#FFFFFF" p-id="12814"></path><path d="M725.312 597.312H768V640h-42.688zM725.312 640H768v42.688h-42.688z" fill="#FABF00" p-id="12815"></path><path d="M810.688 384h42.688v42.688h-42.688z" fill="#F39800" p-id="12816"></path><path d="M810.688 426.688h42.688v42.688h-42.688z" fill="#FABF00" p-id="12817"></path><path d="M810.688 469.312h42.688V512h-42.688z" fill="#FABF00" p-id="12818"></path><path d="M853.312 384H896v42.688h-42.688z" fill="#F39800" p-id="12819"></path><path d="M853.312 426.688H896v42.688h-42.688z" fill="#FABF00" p-id="12820"></path><path d="M853.312 469.312H896V512h-42.688zM853.312 512H896v42.688h-42.688z" fill="#FABF00" p-id="12821"></path><path d="M170.688 384h42.688v42.688h-42.688z" fill="#F39800" p-id="12822"></path><path d="M213.312 384H256v42.688h-42.688zM256 384h42.688v42.688H256zM298.688 384h42.688v42.688h-42.688z" fill="#F39800" p-id="12823"></path><path d="M341.312 384H384v42.688h-42.688zM384 384h42.688v42.688H384zM426.688 384h42.688v42.688h-42.688z" fill="#F39800" p-id="12824"></path><path d="M469.312 384H512v42.688h-42.688z" fill="#F39800" p-id="12825"></path><path d="M170.688 426.688h42.688v42.688h-42.688z" fill="#FABF00" p-id="12826"></path><path d="M213.312 426.688H256v42.688h-42.688zM256 426.688h42.688v42.688H256zM298.688 426.688h42.688v42.688h-42.688z" fill="#FABF00" p-id="12827"></path><path d="M341.312 426.688H384v42.688h-42.688zM384 426.688h42.688v42.688H384zM426.688 426.688h42.688v42.688h-42.688z" fill="#FABF00" p-id="12828"></path><path d="M469.312 426.688H512v42.688h-42.688zM213.312 469.312H256V512h-42.688zM298.688 469.312h42.688V512h-42.688zM384 469.312h42.688V512H384z" fill="#FABF00" p-id="12829"></path><path d="M426.688 469.312h42.688V512h-42.688z" fill="#FABF00" p-id="12830"></path><path d="M512 384h42.688v42.688H512z" fill="#F39800" p-id="12831"></path><path d="M512 426.688h42.688v42.688H512z" fill="#FABF00" p-id="12832"></path><path d="M512 469.312h42.688V512H512zM213.312 512H256v42.688h-42.688zM298.688 512h42.688v42.688h-42.688zM384 512h42.688v42.688H384zM426.688 512h42.688v42.688h-42.688z" fill="#FABF00" p-id="12833"></path><path d="M554.688 384h42.688v42.688h-42.688z" fill="#F39800" p-id="12834"></path><path d="M554.688 426.688h42.688v42.688h-42.688z" fill="#FABF00" p-id="12835"></path><path d="M597.312 384H640v42.688h-42.688z" fill="#F39800" p-id="12836"></path><path d="M597.312 426.688H640v42.688h-42.688z" fill="#FABF00" p-id="12837"></path><path d="M597.312 469.312H640V512h-42.688zM554.688 512h42.688v42.688h-42.688z" fill="#FABF00" p-id="12838"></path><path d="M597.312 512H640v42.688h-42.688zM128 554.688h42.688v42.688H128zM384 554.688h42.688v42.688H384zM597.312 554.688H640v42.688h-42.688zM554.688 640h42.688v42.688h-42.688z" fill="#FABF00" p-id="12839"></path><path d="M213.312 341.312H256V384h-42.688zM640 384h42.688v42.688H640z" fill="#F39800" p-id="12840"></path><path d="M640 426.688h42.688v42.688H640z" fill="#FABF00" p-id="12841"></path><path d="M640 469.312h42.688V512H640zM640 512h42.688v42.688H640z" fill="#FABF00" p-id="12842"></path><path d="M810.688 341.312h42.688V384h-42.688z" fill="#F39800" p-id="12843"></path><path d="M170.688 469.312h42.688V512h-42.688zM256 469.312h42.688V512H256zM341.312 469.312H384V512h-42.688zM469.312 469.312H512V512h-42.688zM128 512h42.688v42.688H128zM170.688 512h42.688v42.688h-42.688zM341.312 512H384v42.688h-42.688zM512 512h42.688v42.688H512zM554.688 469.312h42.688V512h-42.688zM170.688 554.688h42.688v42.688h-42.688zM341.312 554.688H384v42.688h-42.688z" fill="#FABF00" p-id="12844"></path><path d="M170.688 597.312h42.688V640h-42.688zM554.688 554.688h42.688v42.688h-42.688z" fill="#FABF00" p-id="12845"></path><path d="M554.688 597.312h42.688V640h-42.688z" fill="#FABF00" p-id="12846"></path><path d="M682.688 682.688h42.688v42.688h-42.688zM768 682.688h42.688v42.688H768z" fill="#A65425" p-id="12847"></path><path d="M682.688 725.312h42.688V768h-42.688z" fill="#A65425" p-id="12848"></path><path d="M725.312 725.312H768V768h-42.688zM725.312 768H768v42.688h-42.688zM768 725.312h42.688V768H768zM768 768h42.688v42.688H768zM768 810.688h42.688v42.688H768zM810.688 554.688h42.688v42.688h-42.688z" fill="#A65425" p-id="12849"></path><path d="M810.688 597.312h42.688V640h-42.688zM810.688 640h42.688v42.688h-42.688zM810.688 682.688h42.688v42.688h-42.688z" fill="#A65425" p-id="12850"></path><path d="M810.688 725.312h42.688V768h-42.688zM810.688 768h42.688v42.688h-42.688zM810.688 810.688h42.688v42.688h-42.688zM853.312 597.312H896V640h-42.688z" fill="#A65425" p-id="12851"></path><path d="M896 554.688h42.688v42.688H896z" fill="#82512D" p-id="12852"></path><path d="M896 597.312h42.688V640H896z" fill="#82512D" p-id="12853"></path><path d="M853.312 640H896v42.688h-42.688z" fill="#A65425" p-id="12854"></path><path d="M896 640h42.688v42.688H896z" fill="#82512D" p-id="12855"></path><path d="M853.312 682.688H896v42.688h-42.688z" fill="#A65425" p-id="12856"></path><path d="M896 682.688h42.688v42.688H896zM853.312 725.312H896V768h-42.688zM853.312 768H896v42.688h-42.688z" fill="#82512D" p-id="12857"></path><path d="M298.688 597.312h42.688V640h-42.688zM426.688 597.312h42.688V640h-42.688zM128 640h42.688v42.688H128zM213.312 640H256v42.688h-42.688zM256 640h42.688v42.688H256zM298.688 640h42.688v42.688h-42.688z" fill="#A65425" p-id="12858"></path><path d="M341.312 640H384v42.688h-42.688zM384 640h42.688v42.688H384zM426.688 640h42.688v42.688h-42.688z" fill="#A65425" p-id="12859"></path><path d="M469.312 640H512v42.688h-42.688zM128 682.688h42.688v42.688H128zM170.688 682.688h42.688v42.688h-42.688z" fill="#A65425" p-id="12860"></path><path d="M213.312 682.688H256v42.688h-42.688zM256 682.688h42.688v42.688H256zM298.688 682.688h42.688v42.688h-42.688z" fill="#A65425" p-id="12861"></path><path d="M341.312 682.688H384v42.688h-42.688zM384 682.688h42.688v42.688H384zM426.688 682.688h42.688v42.688h-42.688z" fill="#A65425" p-id="12862"></path><path d="M469.312 682.688H512v42.688h-42.688zM512 682.688h42.688v42.688H512zM597.312 682.688H640v42.688h-42.688zM170.688 725.312h42.688V768h-42.688zM341.312 725.312H384V768h-42.688zM384 725.312h42.688V768H384z" fill="#A65425" p-id="12863"></path><path d="M426.688 725.312h42.688V768h-42.688z" fill="#A65425" p-id="12864"></path><path d="M469.312 725.312H512V768h-42.688zM384 768h42.688v42.688H384zM426.688 768h42.688v42.688h-42.688z" fill="#A65425" p-id="12865"></path><path d="M469.312 768H512v42.688h-42.688zM512 725.312h42.688V768H512zM512 768h42.688v42.688H512zM554.688 725.312h42.688V768h-42.688zM426.688 810.688h42.688v42.688h-42.688z" fill="#A65425" p-id="12866"></path><path d="M469.312 810.688H512v42.688h-42.688zM213.312 768H256v42.688h-42.688zM256 768h42.688v42.688H256zM298.688 768h42.688v42.688h-42.688zM170.688 810.688h42.688v42.688h-42.688z" fill="#A65425" p-id="12867"></path><path d="M213.312 810.688H256v42.688h-42.688zM256 810.688h42.688v42.688H256zM298.688 810.688h42.688v42.688h-42.688z" fill="#A65425" p-id="12868"></path><path d="M341.312 810.688H384v42.688h-42.688zM597.312 768H640v42.688h-42.688zM554.688 810.688h42.688v42.688h-42.688z" fill="#A65425" p-id="12869"></path><path d="M597.312 810.688H640v42.688h-42.688zM213.312 853.312H256V896h-42.688zM256 853.312h42.688V896H256zM298.688 853.312h42.688V896h-42.688z" fill="#A65425" p-id="12870"></path><path d="M341.312 853.312H384V896h-42.688zM384 853.312h42.688V896H384zM512 853.312h42.688V896H512zM554.688 853.312h42.688V896h-42.688z" fill="#A65425" p-id="12871"></path><path d="M597.312 853.312H640V896h-42.688zM213.312 896H256v42.688h-42.688zM256 896h42.688v42.688H256zM298.688 896h42.688v42.688h-42.688z" fill="#A65425" p-id="12872"></path><path d="M341.312 896H384v42.688h-42.688zM384 896h42.688v42.688H384zM426.688 896h42.688v42.688h-42.688z" fill="#A65425" p-id="12873"></path><path d="M469.312 896H512v42.688h-42.688z" fill="#A65425" p-id="12874"></path><path d="M298.688 938.688h42.688v42.688h-42.688z" fill="#82512D" p-id="12875"></path><path d="M341.312 938.688H384v42.688h-42.688zM384 938.688h42.688v42.688H384zM426.688 938.688h42.688v42.688h-42.688z" fill="#82512D" p-id="12876"></path><path d="M469.312 938.688H512v42.688h-42.688z" fill="#82512D" p-id="12877"></path><path d="M512 896h42.688v42.688H512z" fill="#A65425" p-id="12878"></path><path d="M512 938.688h42.688v42.688H512z" fill="#82512D" p-id="12879"></path><path d="M554.688 896h42.688v42.688h-42.688z" fill="#A65425" p-id="12880"></path><path d="M554.688 938.688h42.688v42.688h-42.688z" fill="#82512D" p-id="12881"></path><path d="M597.312 896H640v42.688h-42.688z" fill="#A65425" p-id="12882"></path><path d="M597.312 938.688H640v42.688h-42.688z" fill="#82512D" p-id="12883"></path><path d="M682.688 853.312h42.688V896h-42.688zM682.688 896h42.688v42.688h-42.688z" fill="#A65425" p-id="12884"></path><path d="M682.688 938.688h42.688v42.688h-42.688z" fill="#82512D" p-id="12885"></path><path d="M682.688 810.688h42.688v42.688h-42.688z" fill="#A65425" p-id="12886"></path><path d="M725.312 853.312H768V896h-42.688zM725.312 896H768v42.688h-42.688z" fill="#A65425" p-id="12887"></path><path d="M725.312 938.688H768v42.688h-42.688zM768 896h42.688v42.688H768zM810.688 896h42.688v42.688h-42.688z" fill="#82512D" p-id="12888"></path><path d="M512 810.688h42.688v42.688H512zM554.688 768h42.688v42.688h-42.688zM597.312 725.312H640V768h-42.688zM682.688 768h42.688v42.688h-42.688zM725.312 810.688H768v42.688h-42.688z" fill="#A65425" p-id="12889"></path><path d="M853.312 810.688H896v42.688h-42.688z" fill="#82512D" p-id="12890"></path><path d="M426.688 853.312h42.688V896h-42.688z" fill="#A65425" p-id="12891"></path><path d="M469.312 853.312H512V896h-42.688zM768 853.312h42.688V896H768z" fill="#A65425" p-id="12892"></path><path d="M810.688 853.312h42.688V896h-42.688z" fill="#82512D" p-id="12893"></path><path d="M640 597.312h42.688V640H640zM640 640h42.688v42.688H640zM640 682.688h42.688v42.688H640z" fill="#A65425" p-id="12894"></path><path d="M640 725.312h42.688V768H640zM640 768h42.688v42.688H640zM640 810.688h42.688v42.688H640z" fill="#A65425" p-id="12895"></path><path d="M640 853.312h42.688V896H640zM640 896h42.688v42.688H640z" fill="#A65425" p-id="12896"></path><path d="M640 938.688h42.688v42.688H640z" fill="#82512D" p-id="12897"></path><path d="M256 554.688h42.688v42.688H256zM469.312 554.688H512v42.688h-42.688z" fill="#A65425" p-id="12898"></path><path d="M256 597.312h42.688V640H256zM469.312 597.312H512V640h-42.688zM213.312 725.312H256V768h-42.688zM256 725.312h42.688V768H256zM298.688 725.312h42.688V768h-42.688zM170.688 768h42.688v42.688h-42.688zM341.312 768H384v42.688h-42.688zM384 810.688h42.688v42.688H384z" fill="#A65425" p-id="12899"></path><path d="M256 170.688h42.688v42.688H256zM170.688 213.312h42.688V256h-42.688z" p-id="12900"></path><path d="M213.312 213.312H256V256h-42.688zM128 256h42.688v42.688H128zM128 298.688h42.688v42.688H128zM170.688 298.688h42.688v42.688h-42.688z" p-id="12901"></path><path d="M213.312 298.688H256v42.688h-42.688zM426.688 42.688h42.688v42.688h-42.688zM384 85.312h42.688V128H384z" p-id="12902"></path><path d="M426.688 85.312h42.688V128h-42.688z" p-id="12903"></path><path d="M469.312 85.312H512V128h-42.688zM512 85.312h42.688V128H512zM554.688 85.312h42.688V128h-42.688z" p-id="12904"></path><path d="M597.312 42.688H640v42.688h-42.688z" p-id="12905"></path><path d="M597.312 85.312H640V128h-42.688zM640 85.312h42.688V128H640zM810.688 213.312h42.688V256h-42.688zM810.688 298.688h42.688v42.688h-42.688z" p-id="12906"></path><path d="M853.312 213.312H896V256h-42.688zM853.312 298.688H896v42.688h-42.688zM896 256h42.688v42.688H896zM896 298.688h42.688v42.688H896zM682.688 597.312h42.688V640h-42.688zM682.688 640h42.688v42.688h-42.688zM768 554.688h42.688v42.688H768z" p-id="12907"></path><path d="M768 597.312h42.688V640H768zM768 640h42.688v42.688H768zM725.312 682.688H768v42.688h-42.688zM810.688 512h42.688v42.688h-42.688zM896 384h42.688v42.688H896zM896 426.688h42.688v42.688H896z" p-id="12908"></path><path d="M896 469.312h42.688V512H896zM896 512h42.688v42.688H896zM938.688 512h42.688v42.688h-42.688zM853.312 554.688H896v42.688h-42.688zM938.688 554.688h42.688v42.688h-42.688z" p-id="12909"></path><path d="M938.688 597.312h42.688V640h-42.688zM938.688 640h42.688v42.688h-42.688zM938.688 682.688h42.688v42.688h-42.688zM896 725.312h42.688V768H896zM128 384h42.688v42.688H128zM128 426.688h42.688v42.688H128zM213.312 554.688H256v42.688h-42.688zM298.688 554.688h42.688v42.688h-42.688zM426.688 554.688h42.688v42.688h-42.688zM128 597.312h42.688V640H128z" p-id="12910"></path><path d="M213.312 597.312H256V640h-42.688zM512 554.688h42.688v42.688H512z" p-id="12911"></path><path d="M512 597.312h42.688V640H512zM85.312 640H128v42.688h-42.688zM170.688 640h42.688v42.688h-42.688zM512 640h42.688v42.688H512zM597.312 597.312H640V640h-42.688zM597.312 640H640v42.688h-42.688zM85.312 682.688H128v42.688h-42.688zM554.688 682.688h42.688v42.688h-42.688zM128 725.312h42.688V768H128zM128 768h42.688v42.688H128zM170.688 853.312h42.688V896h-42.688zM170.688 896h42.688v42.688h-42.688zM213.312 938.688H256v42.688h-42.688zM256 938.688h42.688v42.688H256zM896 810.688h42.688v42.688H896zM768 938.688h42.688v42.688H768zM810.688 938.688h42.688v42.688h-42.688zM853.312 853.312H896V896h-42.688zM853.312 896H896v42.688h-42.688zM896 768h42.688v42.688H896zM469.312 0H512v42.688h-42.688zM298.688 128h42.688v42.688h-42.688z" p-id="12912"></path><path d="M341.312 128H384v42.688h-42.688zM128 170.688h42.688v42.688H128zM85.312 213.312H128V256h-42.688z" p-id="12913"></path><path d="M42.688 170.688h42.688v42.688H42.688zM42.688 128h42.688v42.688H42.688z" p-id="12914"></path><path d="M85.312 128H128v42.688h-42.688zM170.688 341.312h42.688V384h-42.688zM256 341.312h42.688V384H256zM298.688 341.312h42.688V384h-42.688z" p-id="12915"></path><path d="M341.312 341.312H384V384h-42.688zM384 341.312h42.688V384H384zM426.688 341.312h42.688V384h-42.688z" p-id="12916"></path><path d="M469.312 341.312H512V384h-42.688zM512 0h42.688v42.688H512zM512 341.312h42.688V384H512zM554.688 0h42.688v42.688h-42.688zM554.688 341.312h42.688V384h-42.688z" p-id="12917"></path><path d="M597.312 341.312H640V384h-42.688zM640 341.312h42.688V384H640zM640 554.688h42.688v42.688H640zM682.688 128h42.688v42.688h-42.688zM682.688 341.312h42.688V384h-42.688z" p-id="12918"></path><path d="M725.312 128H768v42.688h-42.688zM725.312 341.312H768V384h-42.688zM768 170.688h42.688v42.688H768zM768 341.312h42.688V384H768zM853.312 341.312H896V384h-42.688zM298.688 981.312h42.688V1024h-42.688z" p-id="12919"></path><path d="M341.312 981.312H384V1024h-42.688zM384 981.312h42.688V1024H384zM426.688 981.312h42.688V1024h-42.688z" p-id="12920"></path><path d="M469.312 981.312H512V1024h-42.688zM512 981.312h42.688V1024H512zM554.688 981.312h42.688V1024h-42.688z" p-id="12921"></path><path d="M597.312 981.312H640V1024h-42.688zM640 981.312h42.688V1024H640zM682.688 981.312h42.688V1024h-42.688z" p-id="12922"></path><path d="M725.312 981.312H768V1024h-42.688zM128 469.312h42.688V512H128zM85.312 512H128v42.688h-42.688zM256 512h42.688v42.688H256zM469.312 512H512v42.688h-42.688zM85.312 554.688H128v42.688h-42.688z" p-id="12923"></path><path d="M85.312 597.312H128V640h-42.688zM341.312 597.312H384V640h-42.688zM384 597.312h42.688V640H384zM128 810.688h42.688v42.688H128z" p-id="12924"></path></svg>