<?xml version="1.0" standalone="no"?><!DOCTYPE svg PUBLIC "-//W3C//DTD SVG 1.1//EN" "http://www.w3.org/Graphics/SVG/1.1/DTD/svg11.dtd"><svg t="1701157234004" class="icon" viewBox="0 0 1024 1024" version="1.1" xmlns="http://www.w3.org/2000/svg" p-id="7269" xmlns:xlink="http://www.w3.org/1999/xlink" width="200" height="200"><path d="M170.688 170.688h42.688v42.688h-42.688z" p-id="7270"></path><path d="M213.312 170.688H256v42.688h-42.688z" fill="#EE7500" p-id="7271"></path><path d="M256 170.688h42.688v42.688H256zM298.688 170.688h42.688v42.688h-42.688z" p-id="7272"></path><path d="M341.312 170.688H384v42.688h-42.688zM384 170.688h42.688v42.688H384zM426.688 170.688h42.688v42.688h-42.688z" fill="#6FBA2C" p-id="7273"></path><path d="M469.312 170.688H512v42.688h-42.688zM213.312 213.312H256V256h-42.688zM341.312 213.312H384V256h-42.688zM384 213.312h42.688V256H384z" p-id="7274"></path><path d="M426.688 213.312h42.688V256h-42.688z" fill="#6FBA2C" p-id="7275"></path><path d="M469.312 213.312H512V256h-42.688z" fill="#6FBA2C" p-id="7276"></path><path d="M256 256h42.688v42.688H256zM426.688 256h42.688v42.688h-42.688z" p-id="7277"></path><path d="M469.312 256H512v42.688h-42.688zM298.688 298.688h42.688v42.688h-42.688z" p-id="7278"></path><path d="M512 170.688h42.688v42.688H512z" fill="#6FBA2C" p-id="7279"></path><path d="M512 213.312h42.688V256H512zM512 256h42.688v42.688H512z" fill="#6FBA2C" p-id="7280"></path><path d="M512 298.688h42.688v42.688H512z" p-id="7281"></path><path d="M554.688 170.688h42.688v42.688h-42.688z" fill="#6FBA2C" p-id="7282"></path><path d="M554.688 213.312h42.688V256h-42.688z" fill="#6FBA2C" p-id="7283"></path><path d="M554.688 256h42.688v42.688h-42.688z" p-id="7284"></path><path d="M554.688 298.688h42.688v42.688h-42.688zM597.312 170.688H640v42.624h-42.688zM597.312 213.312H640V256h-42.688z" fill="#6FBA2C" p-id="7285"></path><path d="M597.312 256H640v42.688h-42.688z" p-id="7286"></path><path d="M597.312 298.688H640v42.688h-42.688zM640 213.312h42.688V256H640zM640 256h42.688v42.688H640zM682.688 213.312h42.624V256h-42.624z" fill="#6FBA2C" p-id="7287"></path><path d="M640 170.688h42.688v42.624H640zM682.688 170.688h42.688v42.624h-42.688zM213.312 42.688H256v42.688h-42.688zM256 42.688h42.688v42.688H256zM298.688 42.688h42.688v42.688h-42.688zM384 42.688h42.688v42.688H384z" p-id="7288"></path><path d="M426.688 42.688h42.688v42.688h-42.688z" fill="#6FBA2C" p-id="7289"></path><path d="M469.312 42.688H512v42.688h-42.688zM213.312 85.312H256V128h-42.688zM256 85.312h42.688V128H256zM298.688 85.312h42.688V128h-42.688z" fill="#6FBA2C" p-id="7290"></path><path d="M341.312 85.312H384V128h-42.688z" p-id="7291"></path><path d="M384 85.312h42.688V128H384zM426.688 85.312h42.688V128h-42.688z" fill="#6FBA2C" p-id="7292"></path><path d="M469.312 85.312H512V128h-42.688z" fill="#6FBA2C" p-id="7293"></path><path d="M512 42.688h42.688v42.688H512z" p-id="7294"></path><path d="M512 85.312h42.688V128H512z" fill="#6FBA2C" p-id="7295"></path><path d="M554.688 85.312h42.688V128h-42.688z" p-id="7296"></path><path d="M682.688 298.688h42.688v42.688h-42.688z" fill="#6FBA2C" p-id="7297"></path><path d="M725.312 256H768v42.688h-42.688zM725.312 298.688H768v42.688h-42.688z" p-id="7298"></path><path d="M682.688 384h42.688v42.688h-42.688zM682.688 426.688h42.688v42.688h-42.688z" fill="#6FBA2C" p-id="7299"></path><path d="M682.688 469.312h42.688V512h-42.688z" fill="#6FBA2C" p-id="7300"></path><path d="M725.312 384H768v42.688h-42.688zM725.312 426.688H768v42.688h-42.688z" p-id="7301"></path><path d="M725.312 469.312H768V512h-42.688zM682.688 512h42.688v42.688h-42.688zM768 384h42.688v42.688H768zM682.688 682.688h42.688v42.688h-42.688z" p-id="7302"></path><path d="M725.312 725.312H768V768h-42.688zM768 768h42.688v42.688H768zM810.688 426.688h42.688v42.688h-42.688zM810.688 810.688h42.688v42.688h-42.688z" p-id="7303"></path><path d="M853.312 426.688H896v42.688h-42.688zM896 469.312h42.688V512H896zM896 512h42.688v42.688H896zM938.688 554.688h42.688v42.688h-42.688z" p-id="7304"></path><path d="M938.688 597.312h42.688V640h-42.688zM938.688 640h42.688v42.688h-42.688zM896 682.688h42.688v42.688H896zM853.312 768H896v42.688h-42.688z" p-id="7305"></path><path d="M896 725.312h42.688V768H896zM384 384h42.688v42.688H384zM426.688 426.688h42.688v42.688h-42.688zM554.688 384h42.688v42.688h-42.688zM554.688 426.688h42.688v42.688h-42.688z" p-id="7306"></path><path d="M597.312 384H640v42.688h-42.688zM597.312 426.688H640v42.688h-42.688z" fill="#6FBA2C" p-id="7307"></path><path d="M597.312 469.312H640V512h-42.688zM597.312 512H640v42.688h-42.688zM597.312 597.312H640V640h-42.688zM896 810.688h42.688v42.688H896zM853.312 853.312H896V896h-42.688z" p-id="7308"></path><path d="M896 853.312h42.688V896H896z" fill="#EE7500" p-id="7309"></path><path d="M938.688 853.312h42.688V896h-42.688zM896 896h42.688v42.688H896z" p-id="7310"></path><path d="M938.688 896h42.688v42.688h-42.688z" fill="#EE7500" p-id="7311"></path><path d="M938.688 938.688h42.688v42.688h-42.688z" p-id="7312"></path><path d="M853.312 810.688H896v42.688h-42.688z" fill="#EE7500" p-id="7313"></path><path d="M426.688 0h42.688v42.688h-42.688z" p-id="7314"></path><path d="M469.312 0H512v42.688h-42.688zM170.688 85.312h42.688V128h-42.688z" p-id="7315"></path><path d="M170.688 128h42.688v42.688h-42.688z" fill="#EE7500" p-id="7316"></path><path d="M213.312 128H256v42.688h-42.688z" p-id="7317"></path><path d="M256 128h42.688v42.688H256zM298.688 128h42.688v42.688h-42.688z" fill="#6FBA2C" p-id="7318"></path><path d="M341.312 128H384v42.688h-42.688z" fill="#6FBA2C" p-id="7319"></path><path d="M384 128h42.688v42.688H384zM426.688 128h42.688v42.688h-42.688z" p-id="7320"></path><path d="M469.312 128H512v42.688h-42.688z" fill="#6FBA2C" p-id="7321"></path><path d="M128 170.688h42.688v42.688H128z" fill="#F9C151" p-id="7322"></path><path d="M0 298.688h42.688v42.688H0zM0 256h42.688v42.688H0zM0 213.312h42.688V256H0z" p-id="7323"></path><path d="M0 170.688h42.688v42.688H0zM0 128h42.688v42.688H0zM42.688 85.312h42.688V128H42.688z" p-id="7324"></path><path d="M85.312 42.688H128v42.688h-42.688zM128 42.688h42.688v42.688H128z" p-id="7325"></path><path d="M85.312 85.312H128V128h-42.688zM128 128h42.688v42.688H128z" p-id="7326"></path><path d="M128 85.312h42.688V128H128z" fill="#EE7500" p-id="7327"></path><path d="M0 341.312h42.688V384H0zM341.312 341.312H384V384h-42.688zM0 384h42.688v42.688H0zM0 426.688h42.688v42.688H0z" p-id="7328"></path><path d="M0 469.312h42.688V512H0z" p-id="7329"></path><path d="M512 128h42.688v42.688H512z" fill="#6FBA2C" p-id="7330"></path><path d="M512 341.312h42.688V384H512zM0 512h42.688v42.688H0z" p-id="7331"></path><path d="M554.688 128h42.688v42.688h-42.688zM554.688 341.312h42.688V384h-42.688z" fill="#6FBA2C" p-id="7332"></path><path d="M597.312 128H640v42.688h-42.688z" p-id="7333"></path><path d="M597.312 341.312H640V384h-42.688z" fill="#6FBA2C" p-id="7334"></path><path d="M640 298.688h42.688v42.688H640z" p-id="7335"></path><path d="M640 341.312h42.688V384H640zM640 384h42.688v42.688H640zM640 426.688h42.688v42.688H640z" fill="#6FBA2C" p-id="7336"></path><path d="M640 469.312h42.688V512H640z" fill="#6FBA2C" p-id="7337"></path><path d="M640 512h42.688v42.688H640zM0 554.688h42.688v42.688H0z" p-id="7338"></path><path d="M0 597.312h42.688V640H0zM0 640h42.688v42.688H0z" p-id="7339"></path><path d="M725.312 512H768v42.688h-42.688zM768 426.688h42.688v42.688H768z" fill="#D0493A" p-id="7340"></path><path d="M768 469.312h42.688V512H768zM682.688 554.688h42.688v42.688h-42.688z" fill="#D0493A" p-id="7341"></path><path d="M682.688 597.312h42.688V640h-42.688zM725.312 640H768v42.688h-42.688zM768 640h42.688v42.688H768zM810.688 469.312h42.688V512h-42.688zM810.688 597.312h42.688V640h-42.688zM810.688 640h42.688v42.688h-42.688zM810.688 768h42.688v42.688h-42.688z" fill="#D0493A" p-id="7342"></path><path d="M853.312 469.312H896V512h-42.688zM853.312 512H896v42.688h-42.688zM853.312 554.688H896v42.688h-42.688z" fill="#D0493A" p-id="7343"></path><path d="M853.312 597.312H896V640h-42.688zM896 554.688h42.688v42.688H896z" fill="#D0493A" p-id="7344"></path><path d="M896 597.312h42.688V640H896zM896 640h42.688v42.688H896zM853.312 725.312H896V768h-42.688z" fill="#D0493A" p-id="7345"></path><path d="M768 512h42.688v42.688H768zM725.312 554.688H768v42.688h-42.688z" fill="#B81F23" p-id="7346"></path><path d="M725.312 597.312H768V640h-42.688zM682.688 640h42.688v42.688h-42.688zM768 554.688h42.688v42.688H768z" fill="#B81F23" p-id="7347"></path><path d="M768 597.312h42.688V640H768zM725.312 682.688H768v42.688h-42.688zM768 682.688h42.688v42.688H768z" fill="#B81F23" p-id="7348"></path><path d="M768 725.312h42.688V768H768zM810.688 512h42.688v42.688h-42.688zM810.688 554.688h42.688v42.688h-42.688zM810.688 682.688h42.688v42.688h-42.688z" fill="#B81F23" p-id="7349"></path><path d="M810.688 725.312h42.688V768h-42.688zM853.312 640H896v42.688h-42.688z" fill="#B81F23" p-id="7350"></path><path d="M853.312 682.688H896v42.688h-42.688zM597.312 554.688H640v42.688h-42.688zM640 554.688h42.688v42.688H640z" fill="#B81F23" p-id="7351"></path><path d="M640 597.312h42.688V640H640z" fill="#D0493A" p-id="7352"></path><path d="M640 640h42.688v42.688H640z" p-id="7353"></path><path d="M682.688 256h42.688v42.688h-42.688z" fill="#6FBA2C" p-id="7354"></path><path d="M682.688 341.312h42.688V384h-42.688zM725.312 213.312H768V256h-42.688zM0 682.688h42.688v42.688H0z" p-id="7355"></path><path d="M0 725.312h42.688V768H0zM0 768h42.688v42.688H0zM0 810.688h42.688v42.688H0z" p-id="7356"></path><path d="M0 853.312h42.688V896H0zM0 896h42.688v42.688H0zM0 938.688h42.688v42.624H0zM42.688 981.312h42.688V1024H42.688z" p-id="7357"></path><path d="M85.312 981.312H128V1024h-42.688zM128 981.312h42.688V1024H128zM170.688 981.312h42.688V1024h-42.688z" p-id="7358"></path><path d="M213.312 981.312H256V1024h-42.688zM256 981.312h42.688V1024H256zM298.688 981.312h42.688V1024h-42.688z" p-id="7359"></path><path d="M341.312 981.312H384V1024h-42.688zM384 981.312h42.688V1024H384zM426.688 981.312h42.688V1024h-42.688z" p-id="7360"></path><path d="M469.312 981.312H512V1024h-42.688zM512 981.312h42.688V1024H512zM554.688 981.312h42.688V1024h-42.688z" p-id="7361"></path><path d="M597.312 981.312H640V1024h-42.688zM640 981.312h42.688V1024H640zM682.688 981.312h42.688V1024h-42.688z" p-id="7362"></path><path d="M725.312 981.312H768V1024h-42.688zM768 981.312h42.688V1024H768zM810.688 981.312h42.688V1024h-42.688z" p-id="7363"></path><path d="M853.312 981.312H896V1024h-42.688zM896 981.312h42.688V1024H896zM981.312 896H1024v42.688h-42.688zM981.312 938.688H1024v42.624h-42.688zM469.312 469.312H512V512h-42.688zM512 512h42.688v42.688H512z" p-id="7364"></path><path d="M256 213.312h42.688V256H256zM298.688 213.312h42.688V256h-42.688zM298.688 256h42.688v42.688h-42.688z" fill="#FED200" p-id="7365"></path><path d="M341.312 256H384v42.688h-42.688zM384 256h42.688v42.688H384zM341.312 298.688H384v42.688h-42.688zM384 298.688h42.688v42.688H384zM426.688 298.688h42.688v42.688h-42.688z" fill="#FED200" p-id="7366"></path><path d="M469.312 298.688H512v42.688h-42.688zM426.688 384h42.688v42.688h-42.688z" fill="#FED200" p-id="7367"></path><path d="M469.312 384H512v42.688h-42.688zM469.312 426.688H512v42.688h-42.688zM512 384h42.688v42.688H512zM512 426.688h42.688v42.688H512z" fill="#FED200" p-id="7368"></path><path d="M512 469.312h42.688V512H512zM554.688 512h42.688v42.688h-42.688zM384 341.312h42.688V384H384zM426.688 341.312h42.688V384h-42.688z" fill="#FED200" p-id="7369"></path><path d="M469.312 341.312H512V384h-42.688zM554.688 469.312h42.688V512h-42.688z" fill="#FED200" p-id="7370"></path><path d="M554.688 554.688h42.688v42.688h-42.688z" p-id="7371"></path><path d="M128 213.312h42.688V256H128zM170.688 213.312h42.688V256h-42.688zM85.312 256H128v42.688h-42.688zM128 256h42.688v42.688H128zM170.688 256h42.688v42.688h-42.688z" fill="#F9C151" p-id="7372"></path><path d="M213.312 256H256v42.688h-42.688zM42.688 298.688h42.688v42.688H42.688z" fill="#F9C151" p-id="7373"></path><path d="M85.312 298.688H128v42.688h-42.688z" fill="#F18D00" p-id="7374"></path><path d="M128 298.688h42.688v42.688H128zM170.688 298.688h42.688v42.688h-42.688z" fill="#F9C151" p-id="7375"></path><path d="M213.312 298.688H256v42.688h-42.688zM256 298.688h42.688v42.688H256zM682.688 725.312h42.688V768h-42.688zM725.312 768H768v42.688h-42.688zM768 810.688h42.688v42.688H768zM42.688 384h42.688v42.688H42.688z" fill="#F9C151" p-id="7376"></path><path d="M85.312 384H128v42.688h-42.688zM128 384h42.688v42.688H128zM170.688 384h42.688v42.688h-42.688z" fill="#F9C151" p-id="7377"></path><path d="M213.312 384H256v42.688h-42.688zM256 384h42.688v42.688H256zM298.688 384h42.688v42.688h-42.688z" fill="#F9C151" p-id="7378"></path><path d="M341.312 384H384v42.688h-42.688zM42.688 426.688h42.688v42.688H42.688z" fill="#F9C151" p-id="7379"></path><path d="M85.312 426.688H128v42.688h-42.688zM128 426.688h42.688v42.688H128zM170.688 426.688h42.688v42.688h-42.688z" fill="#F9C151" p-id="7380"></path><path d="M213.312 426.688H256v42.688h-42.688zM256 426.688h42.688v42.688H256zM298.688 426.688h42.688v42.688h-42.688z" fill="#F9C151" p-id="7381"></path><path d="M341.312 426.688H384v42.688h-42.688zM384 426.688h42.688v42.688H384zM42.688 469.312h42.688V512H42.688zM213.312 469.312H256V512h-42.688z" fill="#F9C151" p-id="7382"></path><path d="M298.688 469.312h42.688V512h-42.688zM384 469.312h42.688V512H384zM426.688 469.312h42.688V512h-42.688zM42.688 512h42.688v42.688H42.688zM213.312 512H256v42.688h-42.688zM298.688 512h42.688v42.688h-42.688zM384 512h42.688v42.688H384zM426.688 512h42.688v42.688h-42.688zM42.688 554.688h42.688v42.688H42.688zM128 554.688h42.688v42.688H128zM213.312 554.688H256v42.688h-42.688zM298.688 554.688h42.688v42.688h-42.688zM384 554.688h42.688v42.688H384zM426.688 554.688h42.688v42.688h-42.688z" fill="#F9C151" p-id="7383"></path><path d="M42.688 597.312h42.688V640H42.688zM128 597.312h42.688V640H128zM213.312 597.312H256V640h-42.688zM298.688 597.312h42.688V640h-42.688zM426.688 597.312h42.688V640h-42.688zM512 554.688h42.688v42.688H512z" fill="#F9C151" p-id="7384"></path><path d="M512 597.312h42.688V640H512zM42.688 640h42.688v42.688H42.688z" fill="#F9C151" p-id="7385"></path><path d="M85.312 640H128v42.688h-42.688zM128 640h42.688v42.688H128zM170.688 640h42.688v42.688h-42.688z" fill="#F9C151" p-id="7386"></path><path d="M213.312 640H256v42.688h-42.688zM256 640h42.688v42.688H256zM298.688 640h42.688v42.688h-42.688z" fill="#F9C151" p-id="7387"></path><path d="M341.312 640H384v42.688h-42.688zM384 640h42.688v42.688H384z" fill="#F9C151" p-id="7388"></path><path d="M426.688 640h42.688v42.688h-42.688z" fill="#F18D00" p-id="7389"></path><path d="M469.312 640H512v42.688h-42.688zM512 640h42.688v42.688H512zM554.688 640h42.688v42.688h-42.688z" fill="#F9C151" p-id="7390"></path><path d="M597.312 640H640v42.688h-42.688zM42.688 682.688h42.688v42.688H42.688z" fill="#F9C151" p-id="7391"></path><path d="M85.312 682.688H128v42.688h-42.688zM128 682.688h42.688v42.688H128zM170.688 682.688h42.688v42.688h-42.688z" fill="#F9C151" p-id="7392"></path><path d="M213.312 682.688H256v42.688h-42.688zM256 682.688h42.688v42.688H256zM298.688 682.688h42.688v42.688h-42.688z" fill="#F9C151" p-id="7393"></path><path d="M341.312 682.688H384v42.688h-42.688zM384 682.688h42.688v42.688H384zM426.688 682.688h42.688v42.688h-42.688z" fill="#F9C151" p-id="7394"></path><path d="M469.312 682.688H512v42.688h-42.688zM512 682.688h42.688v42.688H512zM554.688 682.688h42.688v42.688h-42.688z" fill="#F9C151" p-id="7395"></path><path d="M597.312 682.688H640v42.688h-42.688zM42.688 725.312h42.688V768H42.688z" fill="#F9C151" p-id="7396"></path><path d="M85.312 725.312H128V768h-42.688zM128 725.312h42.688V768H128zM170.688 725.312h42.688V768h-42.688zM341.312 725.312H384V768h-42.688zM384 725.312h42.688V768H384zM426.688 725.312h42.688V768h-42.688z" fill="#F9C151" p-id="7397"></path><path d="M469.312 725.312H512V768h-42.688zM42.688 768h42.688v42.688H42.688z" fill="#F9C151" p-id="7398"></path><path d="M85.312 768H128v42.688h-42.688zM128 768h42.688v42.688H128zM384 768h42.688v42.688H384zM426.688 768h42.688v42.688h-42.688z" fill="#F9C151" p-id="7399"></path><path d="M469.312 768H512v42.688h-42.688zM512 725.312h42.688V768H512zM512 768h42.688v42.688H512zM42.688 810.688h42.688v42.688H42.688zM554.688 725.312h42.688V768h-42.688zM426.688 810.688h42.688v42.688h-42.688z" fill="#F9C151" p-id="7400"></path><path d="M469.312 810.688H512v42.688h-42.688zM213.312 768H256v42.688h-42.688zM256 768h42.688v42.688H256zM298.688 768h42.688v42.688h-42.688zM170.688 810.688h42.688v42.688h-42.688z" fill="#F9C151" p-id="7401"></path><path d="M213.312 810.688H256v42.688h-42.688zM256 810.688h42.688v42.688H256zM298.688 810.688h42.688v42.688h-42.688z" fill="#F9C151" p-id="7402"></path><path d="M341.312 810.688H384v42.688h-42.688z" fill="#F18D00" p-id="7403"></path><path d="M597.312 768H640v42.688h-42.688zM554.688 810.688h42.688v42.688h-42.688z" fill="#F9C151" p-id="7404"></path><path d="M597.312 810.688H640v42.688h-42.688zM85.312 853.312H128V896h-42.688zM128 853.312h42.688V896H128zM170.688 853.312h42.688V896h-42.688z" fill="#F9C151" p-id="7405"></path><path d="M213.312 853.312H256V896h-42.688zM256 853.312h42.688V896H256zM298.688 853.312h42.688V896h-42.688z" fill="#F9C151" p-id="7406"></path><path d="M341.312 853.312H384V896h-42.688zM384 853.312h42.688V896H384zM512 853.312h42.688V896H512zM554.688 853.312h42.688V896h-42.688z" fill="#F9C151" p-id="7407"></path><path d="M597.312 853.312H640V896h-42.688zM42.688 896h42.688v42.688H42.688z" fill="#F9C151" p-id="7408"></path><path d="M85.312 896H128v42.688h-42.688z" fill="#F9C151" p-id="7409"></path><path d="M128 896h42.688v42.688H128z" fill="#F18D00" p-id="7410"></path><path d="M170.688 896h42.688v42.688h-42.688z" fill="#F9C151" p-id="7411"></path><path d="M213.312 896H256v42.688h-42.688zM256 896h42.688v42.688H256zM298.688 896h42.688v42.688h-42.688z" fill="#F9C151" p-id="7412"></path><path d="M341.312 896H384v42.688h-42.688zM384 896h42.688v42.688H384zM426.688 896h42.688v42.688h-42.688z" fill="#F9C151" p-id="7413"></path><path d="M469.312 896H512v42.688h-42.688zM42.688 938.688h42.688v42.688H42.688z" fill="#F9C151" p-id="7414"></path><path d="M85.312 938.688H128v42.688h-42.688zM128 938.688h42.688v42.688H128zM170.688 938.688h42.688v42.688h-42.688z" fill="#F9C151" p-id="7415"></path><path d="M213.312 938.688H256v42.688h-42.688zM256 938.688h42.688v42.688H256zM298.688 938.688h42.688v42.688h-42.688z" fill="#F9C151" p-id="7416"></path><path d="M341.312 938.688H384v42.688h-42.688zM384 938.688h42.688v42.688H384zM426.688 938.688h42.688v42.688h-42.688z" fill="#F9C151" p-id="7417"></path><path d="M469.312 938.688H512v42.688h-42.688zM512 896h42.688v42.688H512zM512 938.688h42.688v42.688H512zM554.688 896h42.688v42.688h-42.688zM554.688 938.688h42.688v42.688h-42.688z" fill="#F9C151" p-id="7418"></path><path d="M597.312 896H640v42.688h-42.688zM597.312 938.688H640v42.688h-42.688zM682.688 853.312h42.688V896h-42.688zM682.688 896h42.688v42.688h-42.688zM682.688 938.688h42.688v42.688h-42.688z" fill="#F9C151" p-id="7419"></path><path d="M682.688 810.688h42.688v42.688h-42.688z" fill="#F9C151" p-id="7420"></path><path d="M725.312 853.312H768V896h-42.688zM725.312 896H768v42.688h-42.688zM725.312 938.688H768v42.688h-42.688zM768 896h42.688v42.688H768zM768 938.688h42.688v42.688H768zM810.688 896h42.688v42.688h-42.688zM810.688 938.688h42.688v42.688h-42.688z" fill="#F9C151" p-id="7421"></path><path d="M853.312 896H896v42.688h-42.688zM853.312 938.688H896v42.688h-42.688zM896 938.688h42.688v42.688H896zM512 810.688h42.688v42.688H512zM554.688 768h42.688v42.688h-42.688zM597.312 725.312H640V768h-42.688zM682.688 768h42.688v42.688h-42.688zM725.312 810.688H768v42.688h-42.688zM42.688 853.312h42.688V896H42.688zM426.688 853.312h42.688V896h-42.688z" fill="#F9C151" p-id="7422"></path><path d="M469.312 853.312H512V896h-42.688zM768 853.312h42.688V896H768zM810.688 853.312h42.688V896h-42.688zM85.312 170.688H128v42.688h-42.688z" fill="#F9C151" p-id="7423"></path><path d="M85.312 213.312H128V256h-42.688zM42.688 256h42.688v42.688H42.688z" fill="#F9C151" p-id="7424"></path><path d="M42.688 213.312h42.688V256H42.688z" fill="#F9C151" p-id="7425"></path><path d="M42.688 170.688h42.688v42.688H42.688zM42.688 128h42.688v42.688H42.688z" fill="#F9C151" p-id="7426"></path><path d="M85.312 128H128v42.688h-42.688zM42.688 341.312h42.688V384H42.688z" fill="#F9C151" p-id="7427"></path><path d="M85.312 341.312H128V384h-42.688zM128 341.312h42.688V384H128zM170.688 341.312h42.688V384h-42.688z" fill="#F9C151" p-id="7428"></path><path d="M213.312 341.312H256V384h-42.688zM256 341.312h42.688V384H256zM298.688 341.312h42.688V384h-42.688zM640 682.688h42.688v42.688H640z" fill="#F9C151" p-id="7429"></path><path d="M640 725.312h42.688V768H640zM640 768h42.688v42.688H640zM640 810.688h42.688v42.688H640z" fill="#F9C151" p-id="7430"></path><path d="M640 853.312h42.688V896H640z" fill="#F18D00" p-id="7431"></path><path d="M640 896h42.688v42.688H640zM640 938.688h42.688v42.688H640zM85.312 469.312H128V512h-42.688zM128 469.312h42.688V512H128zM170.688 469.312h42.688V512h-42.688zM256 469.312h42.688V512H256z" fill="#F9C151" p-id="7432"></path><path d="M341.312 469.312H384V512h-42.688z" fill="#F18D00" p-id="7433"></path><path d="M85.312 512H128v42.688h-42.688zM128 512h42.688v42.688H128zM170.688 512h42.688v42.688h-42.688zM256 512h42.688v42.688H256zM341.312 512H384v42.688h-42.688zM469.312 512H512v42.688h-42.688zM85.312 554.688H128v42.688h-42.688z" fill="#F9C151" p-id="7434"></path><path d="M170.688 554.688h42.688v42.688h-42.688z" fill="#F18D00" p-id="7435"></path><path d="M256 554.688h42.688v42.688H256zM341.312 554.688H384v42.688h-42.688zM469.312 554.688H512v42.688h-42.688zM85.312 597.312H128V640h-42.688zM170.688 597.312h42.688V640h-42.688z" fill="#F9C151" p-id="7436"></path><path d="M256 597.312h42.688V640H256zM341.312 597.312H384V640h-42.688zM384 597.312h42.688V640H384zM469.312 597.312H512V640h-42.688zM554.688 597.312h42.688V640h-42.688zM213.312 725.312H256V768h-42.688zM256 725.312h42.688V768H256zM298.688 725.312h42.688V768h-42.688zM170.688 768h42.688v42.688h-42.688zM341.312 768H384v42.688h-42.688zM85.312 810.688H128v42.688h-42.688zM128 810.688h42.688v42.688H128zM384 810.688h42.688v42.688H384z" fill="#F9C151" p-id="7437"></path></svg>